<svg width="35" height="34" viewBox="0 0 35 34" fill="none" xmlns="http://www.w3.org/2000/svg">
<g id="solar:bag-smile-linear">
<g id="Group">
<path id="Vector" d="M5.53254 17.0425C6.31566 13.2345 6.70796 11.3333 8.0015 10.1065C8.24056 9.88046 8.49915 9.67476 8.77441 9.49167C10.2663 8.5 12.2642 8.5 16.26 8.5H18.7436C22.738 8.5 24.7344 8.5 26.2248 9.49167C26.5019 9.67583 26.76 9.88267 26.9977 10.1079C28.2927 11.3333 28.685 13.2359 29.4682 17.0411C30.5925 22.5037 31.1555 25.2351 29.8605 27.1703C29.6271 27.5216 29.353 27.846 29.0438 28.1378C27.3434 29.75 24.4777 29.75 18.7436 29.75H16.26C10.5244 29.75 7.65733 29.75 5.95691 28.1378C5.64925 27.8455 5.37585 27.521 5.14171 27.1703C3.84671 25.2351 4.40962 22.5037 5.53546 17.0411L5.53254 17.0425Z" stroke="white" stroke-width="1.5"/>
<path id="Vector_2" d="M13.125 8.49992V7.08325C13.125 5.95608 13.5859 4.87508 14.4064 4.07805C15.2269 3.28102 16.3397 2.83325 17.5 2.83325C18.6603 2.83325 19.7731 3.28102 20.5936 4.07805C21.4141 4.87508 21.875 5.95608 21.875 7.08325V8.49992M13.3729 21.2499C13.6742 22.0794 14.233 22.7977 14.9721 23.3058C15.7113 23.8139 16.5945 24.0867 17.5 24.0867C18.4055 24.0867 19.2887 23.8139 20.0279 23.3058C20.767 22.7977 21.3258 22.0794 21.6271 21.2499" stroke="white" stroke-width="1.5" stroke-linecap="round"/>
</g>
</g>
</svg>
