<svg width="2864" height="795" viewBox="0 0 2864 795" fill="none" xmlns="http://www.w3.org/2000/svg">
<path fill-rule="evenodd" clip-rule="evenodd" d="M0 694.978L119.333 662.213C238.667 629.447 477.333 563.915 716 463.894C954.667 363.872 1193.33 232.809 1432 265.575C1670.67 298.341 1909.33 496.659 2148 481.139C2386.67 463.894 2625.33 232.809 2744.67 115.542L2864 0V795H2744.67C2625.33 795 2386.67 795 2148 795C1909.33 795 1670.67 795 1432 795C1193.33 795 954.667 795 716 795C477.333 795 238.667 795 119.333 795H0V694.978Z" fill="#FFB133"/>
</svg>
